<?xml version="1.0" encoding="UTF-8" standalone="no"?>
<!DOCTYPE svg PUBLIC "-//W3C//DTD SVG 1.1//EN"
"http://www.w3.org/Graphics/SVG/1.1/DTD/svg11.dtd">
<svg viewBox="0 0 935 770" version="1.1" xmlns="http://www.w3.org/2000/svg" xmlns:xlink="http://www.w3.org/1999/xlink">
<defs>
<clipPath id="c0"><path d="M520.2,316.8V189.4H768.1V316.8Z"/></clipPath>
<clipPath id="c1"><path d="M474.4,372V341.4H768.8V372Z"/></clipPath>
<clipPath id="c2"><path d="M458.3,530V451.9H767.5V530Z"/></clipPath>
<style type="text/css"><![CDATA[
.g0{
fill: none;
stroke: #000000;
stroke-width: 1.145;
stroke-linecap: butt;
stroke-linejoin: round;
}
.g1{
}
]]></style>
</defs>
<image clip-path="url(#c0)" preserveAspectRatio="none" x="520" y="189" width="248" height="128" xlink:href="img/1.jpg"/>
<path d="M519.6,317.4H768.7V188.8H519.6V317.4Z" class="g0"/>
<image clip-path="url(#c1)" preserveAspectRatio="none" x="474" y="341" width="295" height="31" xlink:href="img/2.jpg"/>
<path d="M473.8,372.5H769.3V340.8H473.8v31.7Z" class="g0"/>
<image clip-path="url(#c2)" preserveAspectRatio="none" x="458" y="452" width="309" height="78" xlink:href="img/3.jpg"/>
<path d="M457.8,530.6H768V451.3H457.8v79.3Z" class="g0"/>
<path d="M539.9,506l.2,-.1h.1l.2,-.1l.3,-.1l.2,-.1h.1l.2,-.1l.2,-.2h.1l.2,-.1h.1l.1,-.2h.1l.4,-.3l.6,-.4h-.1l.8,-.4l.8,-.4h-.1l.9,-.3h-.1l.9,-.4l-.1,.1l.9,-.4v.1l.9,-.3h-.1l.9,-.2h-.1l2.6,-.4l2.3,-.4h.1l1.1,-.2l1.2,-.2l-.1,.1l2.9,-.2h-.1h37.8l7.9,-.5h-.1h1.3v-.1h.7l.6,-.1l.6,-.1l.1,-.1l1.5,-.4h.1h-.1h.1h-.1h.1h-.1h.1h-.1h.1h-.1h.1h-.2h.1h-.1h.1h-.1h.1h-.1h.1h-.1h.1h-.1h.1h-.1h.1h-.1h.1h-.1h.1h-.1h.1h-.1h.1l-.1,-.1l.1,.1l-.1,-.1v.1v-.1v.1v-.1v.1v-.1v.1v-.1v.1v-.1v.1v-.1v.1v-.1v.1v-.1v.1v-.1v.1v-.2v.3l.2,.6v-.1l.1,.6v-.1l.1,.6v-.1l.1,1.4l.1,1.4l.1,.3l.2,.7l.2,.8v-.1l.1,.8v-.1l.1,.8l.1,.8v-.2V510v-.1v.4l-.1,.1v.2l-.1,.1h.1l-.1,.1v.1v-.1l-.1,.2v-.1v.2V511l-.1,.2v-.1v.1l-.1,.1l-.1,.1l.1,-.1l-.1,.2v-.1l-.1,.1l-.1,.1l-.1,.1l.1,-.1l-.2,.1h.1l-.1,.1h-.1l-.1,.1h-.1h.1l-.2,.1h.1h-.2h.1l-.2,.1l.1,-.1l-.2,.1h.1h-.2h.1h-.2h.1h-.2h.1l-.2,.1l.1,-.1l-.2,.1h.1h-.4h.1l-16.5,.1l-8.1,-.2l-2.9,.1h-.1l-7.1,.6H573l-5.6,.9l-1.7,.3h.1l-1.7,.2h.2l-4.8,.1l-3.8,.1l-15,.1h.1h-.6h.1h-.4h.1l-.3,-.1h-.3h.1l-.3,-.1h-.3h.1l-.3,-.1h.1l-.3,-.1l-.3,-.1h.1l-.6,-.3l.2,.1l-.1,-.1h-.1l-.1,-.1h.1l-.1,-.1v.1l-.1,-.1l-.1,-.1h.1l-.1,-.1l-.1,-.1l.1,.1l-.1,-.1l-.1,-.1h.1l-.1,-.1v-.1v.1l-.1,-.2l.1,.1l-.1,-.2v.1v-.2v.1l-.1,-.2v.1v-.2v.1v-.4v.1v-1.4l-.1,-.2v.1v-.2v.1v-.3l.1,-.2l-.1,.1l.1,-.2v.1v-.5v.1l.1,-.2v.1v-.2l.1,-.1v-.2v.1l.1,-.2v.1l.1,-.2l-.1,.1l.1,-.2v.1l.1,-.2l-.1,.1l.2,-.2l-.1,.1l.1,-.2v.1l.1,-.2v.1l.3,-.3h-.1l2.4,-2c.6,-.5,.7,-1.4,.2,-2c-.5,-.6,-1.4,-.7,-2,-.2l-2.4,1.9l-.2,.1l-.3,.4h-.1l-.1,.2h-.1l-.1,.2l-.2,.2l-.1,.2v.1l-.1,.1l-.1,.1l-.1,.2l-.1,.2l-.1,.2v.1l-.1,.2l-.1,.2v.2l-.1,.1v.4l-.1,.1v.7l-.1,.1v.4l.1,.1v.7v-.2v1.5l.1,.2v.4l.1,.1v.2l.1,.1v.1l.1,.1v.2l.1,.1v.1l.1,.1v.1l.1,.1l.1,.1v.1l.1,.1v.1l.1,.1v.1l.2,.1l.1,.2l.1,.1l.1,.1l.1,.1h.1l.1,.1v.1l.1,.1h.1l.1,.1l.2,.1l.6,.3l.1,.1l.3,.1h.1l.3,.2l.3,.1h.1l.3,.1h.1l.3,.1l.4,.1h.4l.3,.1h.8l15,-.1l3.9,-.1l4.8,-.1h.1l1.6,-.2l.1,-.1l1.6,-.2l5.6,-.9h-.1l7.2,-.6h-.1l2.8,-.1l8,.1h.1l16.5,-.1h.9l.2,-.1h.3l.2,-.1h.2l.2,-.1h.1l.1,-.1h.1l.1,-.1h.1l.1,-.1h.1l.1,-.1h.1l.1,-.1l.1,-.1l.1,-.1h.1l.1,-.1l.2,-.1v-.1l.1,-.1h.1l.1,-.2h.1l.1,-.1v-.1l.1,-.1h.1V513h.1l.1,-.2l.1,-.2l.1,-.2h.1v-.2h.1V512h.1v-.2l.1,-.1v-.2l.1,-.1v-.3h.1v-.5l.1,-.1v-2.9l-.1,-.8v-.1l-.1,-.8l-.1,-.1l-.1,-.7V505l-.2,-.8v-.1l-.2,-.7v.2l-.2,-1.4l-.1,-1.4v-.1l-.1,-.6l-.1,-.6v-.1l-.2,-.5l.1,.1l-.1,-.1v-.4h-.1v-.3h-.1v-.1l-.1,-.1v-.1h-.1v-.1l-.1,-.1v-.1h-.1v-.1H611v-.1l-.1,-.1l-.1,-.1h-.1v-.1h-.1V497h-.1l-.1,-.1h-.1v-.1h-.2l-.1,-.1h-.2l-.1,-.1h-.3v-.1h-.9l-.1,.1h-.3l-1.5,.4h.1l-.5,.1l-.6,.1h.1l-.6,.1h.1h-.6h.1H604l-7.9,.5h.1H558.4l-2.9,.2h-.2l-1.1,.2h-.1l-1.2,.2h.1l-2.4,.4l-2.6,.4h-.1l-.9,.2h-.1l-.9,.3l-.9,.3l-.1,.1l-.9,.3l-.9,.4l-.9,.4v.1l-.9,.4l-.1,.1l-.6,.4l-.1,.1l-.4,.3l.1,-.1l-.2,.2v-.1l-.2,.2l.1,-.1l-.2,.1h.1l-.2,.1l-.2,.1h.1h-.2l-.2,.1h.1H539c-.7,.3,-1.2,1.1,-1,1.9c.3,.8,1.1,1.2,1.9,1Z" class="g1"/>
</svg>